# xmcd CD database file
#
# Track frame offsets:
#	150
#	20225
#	45162
#	68682
#	92780
#	121150
#	134232
#	160290
#	187187
#	203030
#
# Disc length: 3008 seconds
#
# Revision: 0
# Processed by: cddbd v1.5.2PL0 Copyright (c) Steve Scherf et al.
# Submitted via: CDex 1.70beta2
#
DISCID=8e0bbe0a
DTITLE=Various Artist - Jazz In The Cafes～Cool Bossa and Latin Groves～
DYEAR=2001
DGENRE=Jazz
TTITLE0=Grand Cross - Grand Cross
TTITLE1=Good Morning - 増尾好秋
TTITLE2=Samba Em Praia - 益田幹夫
TTITLE3=Moving Man - Grand Cross
TTITLE4=Blue Bossa - 大野俊三
TTITLE5=Rolling Song - David Matthews Orchestra
TTITLE6=Move It - Ronnie Cuber
TTITLE7=You Blow My Heart Away - 本多俊之
TTITLE8=Afro Cuber - Ronnie Cuber
TTITLE9=Spanish Heat - David Matthews Orchestra
EXTD=YEAR: 2001
EXTT0=
EXTT1=
EXTT2=
EXTT3=
EXTT4=
EXTT5=
EXTT6=
EXTT7=
EXTT8=
EXTT9=
PLAYORDER=
